<?xml version="1.0" encoding="UTF-8" standalone="no"?>
<!DOCTYPE svg PUBLIC "-//W3C//DTD SVG 1.1//EN" "http://www.w3.org/Graphics/SVG/1.1/DTD/svg11.dtd">
<svg width="100%" height="100%" viewBox="0 0 456 456" version="1.1" xmlns="http://www.w3.org/2000/svg" xmlns:xlink="http://www.w3.org/1999/xlink" xml:space="preserve" xmlns:serif="http://www.serif.com/" style="fill-rule:evenodd;clip-rule:evenodd;stroke-linejoin:round;stroke-miterlimit:2;">
    <g transform="matrix(7.11111,0,0,7.11111,0,0)">
        <g id="g2" transform="matrix(0.1,0,0,-0.1,0,64)">
            <g transform="matrix(10,0,0,-10,0,640)">
                <path d="M31.77,0C49.304,0 63.539,14.339 63.539,32C63.539,49.661 49.304,64 31.77,64C14.236,64 0,49.661 0,32C0,14.339 14.236,0 31.77,0ZM14.2,17.2C12,19.4 12.8,23.8 15.6,25.6C17.8,27.1 18.9,27.2 24.3,26.1C35.4,24 42.8,24 45.3,26.1L47.5,28L43,27.9C38.7,27.8 19.1,30.5 16.1,31.5C15.4,31.8 14.1,31.5 13.4,30.9C12.3,30 11.9,30.2 11.4,31.5C10.2,34.5 12.4,36.5 16.4,36.3C19.9,36.1 20,36.1 20,39.8C20,42.3 19,45.2 17,48.3C15.3,50.9 14,53.3 14,53.5C14,54.9 16.4,53.6 20.1,50.3C23.4,47.3 24.1,46.1 23.6,44.1C21.6,34.7 21.4,35.4 25.9,34.2C28.2,33.7 30.3,33.6 30.5,34.1C30.8,34.5 30.8,37.2 30.4,40C29.8,44.8 29.5,45.1 27.4,44.6C24.3,43.8 25.1,45.7 29.1,48.9L32.2,51.3L34.3,49.2C36.5,46.9 37,42.9 35.7,36.7C35,33.4 35.1,33 36.8,33C39.1,33 40,35.5 40,42.4C40,46.7 40.4,47.6 43.6,50.5C49.6,56 52.2,52.8 47.4,45.9C45.2,42.6 42.4,34.3 43.2,33.4C43.4,33.3 45,33.8 46.8,34.7C49.9,36.2 50.3,36.2 51.8,34.6C53.3,33.1 53.3,32.7 51.5,29.4C50.4,27.4 48.6,25.2 47.5,24.4C46.4,23.7 39.6,22.4 32.4,21.6C17.7,19.9 15.7,19.3 16.4,17.4C17.1,15.7 15.8,15.6 14.2,17.2ZM16.7,12.6C17.5,14.7 22.8,16.1 34,17.1C39.7,17.6 44.9,18.5 45.4,19C47,20.6 48,20.1 48,17.7C48,11.9 42.7,10.1 30.3,11.8C26.4,12.4 21.6,12.5 19.6,12C17,11.4 16.3,11.5 16.7,12.6Z" style="fill:rgb(235,235,235);"/>
            </g>
        </g>
    </g>
</svg>
