<?xml version="1.0" encoding="UTF-8" standalone="no"?>
<svg
   version="1.0"
   width="64pt"
   height="64pt"
   viewBox="0 0 64 64"
   preserveAspectRatio="xMidYMid"
   id="svg2"
   sodipodi:docname="shikimori.svg"
   xmlns:inkscape="http://www.inkscape.org/namespaces/inkscape"
   xmlns:sodipodi="http://sodipodi.sourceforge.net/DTD/sodipodi-0.dtd"
   xmlns="http://www.w3.org/2000/svg"
   xmlns:svg="http://www.w3.org/2000/svg">
  <defs
     id="defs2" />
  <sodipodi:namedview
     id="namedview2"
     pagecolor="#ffffff"
     bordercolor="#000000"
     borderopacity="0.25"
     inkscape:showpageshadow="2"
     inkscape:pageopacity="0.0"
     inkscape:pagecheckerboard="0"
     inkscape:deskcolor="#d1d1d1"
     inkscape:document-units="pt">
    <inkscape:page
       x="0"
       y="0"
       width="64"
       height="64"
       id="page2"
       margin="0"
       bleed="0" />
  </sodipodi:namedview>
  <g
     transform="matrix(0.1,0,0,-0.1,0,64)"
     fill="#000000"
     stroke="none"
     id="g2">
    <path
       d="m 167,514 c 8,-21 61,-35 173,-45 57,-5 109,-14 114,-19 16,-16 26,-11 26,13 0,58 -53,76 -177,59 -39,-6 -87,-7 -107,-2 -26,6 -33,5 -29,-6 z"
       id="path1" />
    <path
       d="m 142,468 c -22,-22 -14,-66 14,-84 22,-15 33,-16 87,-5 111,21 185,21 210,0 l 22,-19 -45,1 c -43,1 -239,-26 -269,-36 -7,-3 -20,0 -27,6 -11,9 -15,7 -20,-6 -12,-30 10,-50 50,-48 35,2 36,2 36,-35 0,-25 -10,-54 -30,-85 -17,-26 -30,-50 -30,-52 0,-14 24,-1 61,32 33,30 40,42 35,62 -20,94 -22,87 23,99 23,5 44,6 46,1 3,-4 3,-31 -1,-59 -6,-48 -9,-51 -30,-46 -31,8 -23,-11 17,-43 l 31,-24 21,21 c 22,23 27,63 14,125 -7,33 -6,37 11,37 23,0 32,-25 32,-94 0,-43 4,-52 36,-81 60,-55 86,-23 38,46 -22,33 -50,116 -42,125 2,1 18,-4 36,-13 31,-15 35,-15 50,1 15,15 15,19 -3,52 -11,20 -29,42 -40,50 -11,7 -79,20 -151,28 -147,17 -167,23 -160,42 7,17 -6,18 -22,2 z"
       id="path2" />
  </g>
</svg>
